<svg width="35" height="31" viewBox="0 0 35 31" fill="none" xmlns="http://www.w3.org/2000/svg">
<path fill-rule="evenodd" clip-rule="evenodd" d="M34.2497 15.5002C34.2497 16.0555 34.0291 16.5881 33.6364 16.9807C33.2438 17.3734 32.7112 17.594 32.1559 17.594H7.89772L16.8883 26.5803C17.0829 26.775 17.2374 27.0061 17.3427 27.2604C17.4481 27.5148 17.5023 27.7874 17.5023 28.0627C17.5023 28.338 17.4481 28.6106 17.3427 28.865C17.2374 29.1193 17.0829 29.3504 16.8883 29.5451C16.6936 29.7397 16.4625 29.8942 16.2082 29.9995C15.9538 30.1049 15.6812 30.1591 15.4059 30.1591C15.1306 30.1591 14.858 30.1049 14.6036 29.9995C14.3493 29.8942 14.1182 29.7397 13.9235 29.5451L1.36103 16.9826C1.16604 16.7881 1.01135 16.557 0.905794 16.3027C0.800242 16.0483 0.745911 15.7756 0.745911 15.5002C0.745911 15.2248 0.800242 14.9521 0.905794 14.6977C1.01135 14.4434 1.16604 14.2123 1.36103 14.0178L13.9235 1.45533C14.3167 1.06218 14.8499 0.841309 15.4059 0.841309C15.9619 0.841309 16.4951 1.06218 16.8883 1.45533C17.2814 1.84848 17.5023 2.38171 17.5023 2.9377C17.5023 3.4937 17.2814 4.02693 16.8883 4.42008L7.89772 13.4065H32.1559C32.7112 13.4065 33.2438 13.627 33.6364 14.0197C34.0291 14.4124 34.2497 14.9449 34.2497 15.5002Z" fill="white"/>
</svg>
