<svg width="35" height="31" viewBox="0 0 35 31" fill="none" xmlns="http://www.w3.org/2000/svg">
<path fill-rule="evenodd" clip-rule="evenodd" d="M0.750347 15.5002C0.750347 16.0555 0.970936 16.5881 1.36359 16.9807C1.75624 17.3734 2.2888 17.594 2.8441 17.594H27.1023L18.1117 26.5803C17.9171 26.775 17.7626 27.0061 17.6573 27.2604C17.5519 27.5148 17.4977 27.7874 17.4977 28.0627C17.4977 28.338 17.5519 28.6106 17.6573 28.865C17.7626 29.1193 17.9171 29.3504 18.1117 29.5451C18.3064 29.7397 18.5375 29.8942 18.7918 29.9995C19.0462 30.1049 19.3188 30.1591 19.5941 30.1591C19.8694 30.1591 20.142 30.1049 20.3964 29.9995C20.6507 29.8942 20.8818 29.7397 21.0765 29.5451L33.639 16.9826C33.834 16.7881 33.9887 16.557 34.0942 16.3027C34.1998 16.0483 34.2541 15.7756 34.2541 15.5002C34.2541 15.2248 34.1998 14.9521 34.0942 14.6977C33.9887 14.4434 33.834 14.2123 33.639 14.0178L21.0765 1.45533C20.6833 1.06218 20.1501 0.841309 19.5941 0.841309C19.0381 0.841309 18.5049 1.06218 18.1117 1.45533C17.7186 1.84848 17.4977 2.38171 17.4977 2.9377C17.4977 3.4937 17.7186 4.02693 18.1117 4.42008L27.1023 13.4065H2.8441C2.2888 13.4065 1.75624 13.627 1.36359 14.0197C0.970936 14.4124 0.750347 14.9449 0.750347 15.5002Z" fill="white"/>
</svg>
