<svg width="46" height="42" viewBox="0 0 46 42" fill="none" xmlns="http://www.w3.org/2000/svg">
<path fill-rule="evenodd" clip-rule="evenodd" d="M6.89991 41.6003H39.1C41.6898 41.6003 43.5298 40.471 44.6476 38.9185C45.678 37.4856 46 35.8365 46 34.7003V20.9002C46 20.2902 45.7577 19.7052 45.3263 19.2739C44.895 18.8426 44.31 18.6002 43.7 18.6002H36.8V7.10021C36.8 5.27021 36.073 3.51517 34.779 2.22116C33.485 0.927159 31.73 0.200195 29.9 0.200195H6.89991C5.06991 0.200195 3.31486 0.927159 2.02086 2.22116C0.726857 3.51517 -0.000106812 5.27021 -0.000106812 7.10021V34.7003C-0.000106812 35.8342 0.321894 37.4856 1.3523 38.9185C2.4701 40.4733 4.3101 41.6003 6.89991 41.6003ZM39.1 23.2002C39.71 23.2002 40.295 23.4426 40.7263 23.8739C41.1577 24.3052 41.4 24.8903 41.4 25.5003V34.7003C41.4 35.3103 41.1577 35.8953 40.7263 36.3266C40.295 36.758 39.71 37.0003 39.1 37.0003C38.49 37.0003 37.905 36.758 37.4736 36.3266C37.0423 35.8953 36.8 35.3103 36.8 34.7003V25.5003C36.8 24.8903 37.0423 24.3052 37.4736 23.8739C37.905 23.4426 38.49 23.2002 39.1 23.2002ZM16.0999 16.3002C16.0999 15.6902 16.3423 15.1052 16.7736 14.6739C17.2049 14.2425 17.7899 14.0002 18.3999 14.0002C19.0099 14.0002 19.5949 14.2425 20.0263 14.6739C20.4576 15.1052 20.6999 15.6902 20.6999 16.3002C20.6999 16.9102 20.4576 17.4952 20.0263 17.9266C19.5949 18.3579 19.0099 18.6002 18.3999 18.6002C17.7899 18.6002 17.2049 18.3579 16.7736 17.9266C16.3423 17.4952 16.0999 16.9102 16.0999 16.3002ZM18.3999 9.40022C16.5699 9.40022 14.8149 10.1272 13.5209 11.4212C12.2269 12.7152 11.4999 14.4702 11.4999 16.3002C11.4999 18.1302 12.2269 19.8853 13.5209 21.1793C14.8149 22.4733 16.5699 23.2002 18.3999 23.2002C20.2299 23.2002 21.985 22.4733 23.279 21.1793C24.573 19.8853 25.2999 18.1302 25.2999 16.3002C25.2999 14.4702 24.573 12.7152 23.279 11.4212C21.985 10.1272 20.2299 9.40022 18.3999 9.40022ZM11.4999 27.8003C10.8899 27.8003 10.3049 28.0426 9.87357 28.4739C9.44223 28.9052 9.19991 29.4903 9.19991 30.1003C9.19991 30.7103 9.44223 31.2953 9.87357 31.7266C10.3049 32.1579 10.8899 32.4003 11.4999 32.4003H25.2999C25.9099 32.4003 26.495 32.1579 26.9263 31.7266C27.3576 31.2953 27.6 30.7103 27.6 30.1003C27.6 29.4903 27.3576 28.9052 26.9263 28.4739C26.495 28.0426 25.9099 27.8003 25.2999 27.8003H11.4999Z" fill="white"/>
</svg>
