<svg width="34" height="42" viewBox="0 0 34 42" fill="none" xmlns="http://www.w3.org/2000/svg">
<path fill-rule="evenodd" clip-rule="evenodd" d="M19.9895 0.405563C20.4564 0.5524 20.8643 0.84436 21.1538 1.23898C21.4434 1.6336 21.5995 2.11031 21.5995 2.59976V14.0998H30.7995C31.2202 14.0996 31.6329 14.2148 31.9927 14.4329C32.3524 14.6509 32.6455 14.9635 32.84 15.3366C33.0345 15.7096 33.1229 16.1289 33.0957 16.5487C33.0684 16.9686 32.9265 17.3729 32.6855 17.7177L16.5855 40.7177C16.3053 41.1191 15.9043 41.4207 15.4408 41.5785C14.9774 41.7363 14.4757 41.7421 14.0088 41.5951C13.5418 41.4481 13.1339 41.1559 12.8445 40.761C12.5551 40.3662 12.3991 39.8893 12.3995 39.3998V27.8998H3.19946C2.77875 27.9 2.36604 27.7847 2.00626 27.5667C1.64648 27.3486 1.3534 27.036 1.15892 26.663C0.964446 26.2899 0.876019 25.8706 0.903267 25.4508C0.930515 25.031 1.07239 24.6267 1.31346 24.2819L17.4135 1.28186C17.6941 0.881173 18.0952 0.580392 18.5584 0.423219C19.0217 0.266045 19.5229 0.260666 19.9895 0.407864V0.405563Z" fill="white"/>
</svg>
