<svg width="46" height="28" viewBox="0 0 46 28" fill="none" xmlns="http://www.w3.org/2000/svg">
<path d="M45.816 1.62516C45.5826 1.06318 45.136 0.616594 44.5741 0.383211C44.2976 0.265362 44.0006 0.202853 43.7001 0.199219H32.2006C31.5906 0.199219 31.0056 0.44153 30.5743 0.872847C30.143 1.30416 29.9006 1.88915 29.9006 2.49913C29.9006 3.1091 30.143 3.69409 30.5743 4.12541C31.0056 4.55672 31.5906 4.79904 32.2006 4.79904H38.1573L25.3008 17.6555L17.7341 10.0658C17.5203 9.85026 17.2659 9.67916 16.9857 9.5624C16.7054 9.44563 16.4048 9.38552 16.1012 9.38552C15.7976 9.38552 15.497 9.44563 15.2167 9.5624C14.9364 9.67916 14.6821 9.85026 14.4683 10.0658L0.668804 23.8653C0.453237 24.0791 0.282137 24.3335 0.165374 24.6137C0.0486104 24.894 -0.0115051 25.1946 -0.0115051 25.4982C-0.0115051 25.8018 0.0486104 26.1024 0.165374 26.3827C0.282137 26.663 0.453237 26.9173 0.668804 27.1311C0.88261 27.3467 1.13698 27.5178 1.41725 27.6346C1.69751 27.7513 1.99812 27.8115 2.30174 27.8115C2.60535 27.8115 2.90596 27.7513 3.18623 27.6346C3.4665 27.5178 3.72087 27.3467 3.93467 27.1311L16.1012 14.9416L23.6679 22.5313C23.8817 22.7469 24.1361 22.918 24.4163 23.0348C24.6966 23.1515 24.9972 23.2116 25.3008 23.2116C25.6044 23.2116 25.9051 23.1515 26.1853 23.0348C26.4656 22.918 26.72 22.7469 26.9338 22.5313L41.4002 8.04191V13.9987C41.4002 14.6086 41.6425 15.1936 42.0738 15.625C42.5051 16.0563 43.0901 16.2986 43.7001 16.2986C44.3101 16.2986 44.8951 16.0563 45.3264 15.625C45.7577 15.1936 46 14.6086 46 13.9987V2.49913C45.9964 2.19858 45.9339 1.90166 45.816 1.62516Z" fill="white"/>
</svg>
